<svg xmlns="http://www.w3.org/2000/svg" viewBox="0 0 1000 700">
    <!-- Global Memory -->
    <text x="500" y="30" text-anchor="middle" font-size="24" font-weight="bold">Matrix Memory Layout and Block Loading</text>
    
    <!-- Matrix A in Global Memory -->
    <rect x="50" y="80" width="400" height="200" fill="none" stroke="#000" stroke-width="2"/>
    <text x="250" y="70" text-anchor="middle" font-size="20">Matrix A in Global Memory</text>
    
    <!-- Memory cells for Matrix A -->
    <g font-size="11">
        <!-- Row headers -->
        <text x="30" y="110" text-anchor="end">Row 0</text>
        <text x="30" y="150" text-anchor="end">Row 1</text>
        <text x="30" y="190" text-anchor="end">Row 2</text>
        <text x="30" y="230" text-anchor="end">Row 3</text>
        
        <!-- Column headers -->
        <text x="90" y="60" text-anchor="middle">Col 0</text>
        <text x="170" y="60" text-anchor="middle">Col 1</text>
        <text x="250" y="60" text-anchor="middle">Col 2</text>
        <text x="330" y="60" text-anchor="middle">Col 3</text>
        
        <!-- Cells -->
        <rect x="50" y="90" width="80" height="40" fill="#a8d1ff" stroke="#000"/>
        <text x="90" y="115" text-anchor="middle">0</text>
        <rect x="130" y="90" width="80" height="40" fill="#a8d1ff" stroke="#000"/>
        <text x="170" y="115" text-anchor="middle">1</text>
        <rect x="210" y="90" width="80" height="40" fill="#a8d1ff" stroke="#000"/>
        <text x="250" y="115" text-anchor="middle">2</text>
        <rect x="290" y="90" width="80" height="40" fill="#a8d1ff" stroke="#000"/>
        <text x="330" y="115" text-anchor="middle">3</text>
        
        <!-- Row 1 -->
        <rect x="50" y="130" width="80" height="40" fill="#98fb98" stroke="#000"/>
        <text x="90" y="155" text-anchor="middle">4</text>
        <rect x="130" y="130" width="80" height="40" fill="#98fb98" stroke="#000"/>
        <text x="170" y="155" text-anchor="middle">5</text>
        <rect x="210" y="130" width="80" height="40" fill="#98fb98" stroke="#000"/>
        <text x="250" y="155" text-anchor="middle">6</text>
        <rect x="290" y="130" width="80" height="40" fill="#98fb98" stroke="#000"/>
        <text x="330" y="155" text-anchor="middle">7</text>
    </g>
    
    <!-- Linear Memory View -->
    <rect x="50" y="320" width="900" height="60" fill="none" stroke="#000" stroke-width="2"/>
    <text x="500" y="310" text-anchor="middle" font-size="20">Linear Memory Layout (Row-major)</text>
    
    <!-- Linear memory cells -->
    <g font-size="12">
        <rect x="50" y="320" width="80" height="60" fill="#a8d1ff" stroke="#000"/>
        <text x="90" y="355" text-anchor="middle">0</text>
        <rect x="130" y="320" width="80" height="60" fill="#a8d1ff" stroke="#000"/>
        <text x="170" y="355" text-anchor="middle">1</text>
        <rect x="210" y="320" width="80" height="60" fill="#a8d1ff" stroke="#000"/>
        <text x="250" y="355" text-anchor="middle">2</text>
        <rect x="290" y="320" width="80" height="60" fill="#a8d1ff" stroke="#000"/>
        <text x="330" y="355" text-anchor="middle">3</text>
        
        <rect x="370" y="320" width="80" height="60" fill="#98fb98" stroke="#000"/>
        <text x="410" y="355" text-anchor="middle">4</text>
        <rect x="450" y="320" width="80" height="60" fill="#98fb98" stroke="#000"/>
        <text x="490" y="355" text-anchor="middle">5</text>
        <rect x="530" y="320" width="80" height="60" fill="#98fb98" stroke="#000"/>
        <text x="570" y="355" text-anchor="middle">6</text>
        <rect x="610" y="320" width="80" height="60" fill="#98fb98" stroke="#000"/>
        <text x="650" y="355" text-anchor="middle">7</text>
    </g>
    
    <!-- Shared Memory Block -->
    <rect x="50" y="500" width="200" height="150" fill="none" stroke="#000" stroke-width="2"/>
    <text x="150" y="490" text-anchor="middle" font-size="20">Shared Memory Block</text>
    
    <!-- Thread block -->
    <g font-size="12">
        <rect x="50" y="500" width="100" height="75" fill="#a8d1ff" stroke="#000"/>
        <text x="100" y="540" text-anchor="middle">Block (0,0)</text>
        
        <rect x="150" y="500" width="100" height="75" fill="#98fb98" stroke="#000"/>
        <text x="200" y="540" text-anchor="middle">Block (0,1)</text>
    </g>
    
    <!-- Arrows showing data movement -->
    <defs>
        <marker id="arrowhead" markerWidth="10" markerHeight="7" refX="9" refY="3.5" orient="auto">
            <polygon points="0 0, 10 3.5, 0 7" fill="#000"/>
        </marker>
    </defs>
    
    <!-- From 2D to 1D -->
    <path d="M 250 200 C 300 250 350 300 400 340" stroke="#ff0000" stroke-width="2" marker-end="url(#arrowhead)" stroke-dasharray="5,5"/>
    <text x="350" y="280" font-size="14" fill="#ff0000">Row-major transformation</text>
    
    <!-- From 1D to Shared Memory -->
    <path d="M 200 380 C 200 420 150 460 100 500" stroke="#0000ff" stroke-width="2" marker-end="url(#arrowhead)"/>
    <text x="250" y="420" font-size="14" fill="#0000ff">Block load to shared memory</text>
    
    <!-- Legend -->
    <rect x="750" y="500" width="20" height="20" fill="#a8d1ff" stroke="#000"/>
    <text x="780" y="515" font-size="14">First row/block</text>
    
    <rect x="750" y="530" width="20" height="20" fill="#98fb98" stroke="#000"/>
    <text x="780" y="545" font-size="14">Second row/block</text>
    
    <!-- Memory access pattern explanation -->
    <text x="700" y="600" font-size="16">Memory Access Pattern:</text>
    <text x="700" y="625" font-size="14">1. Global memory accessed in row-major order</text>
    <text x="700" y="650" font-size="14">2. Blocks loaded into shared memory</text>
    <text x="700" y="675" font-size="14">3. Each thread loads one element</text>
</svg>
